<svg width="60" height="60" viewBox="0 0 60 60" fill="none" xmlns="http://www.w3.org/2000/svg">
<g clip-path="url(#clip0_372_676)">
<path d="M45.9375 0H14.0625C6.296 0 0 6.296 0 14.0625V45.9375C0 53.704 6.296 60 14.0625 60H45.9375C53.704 60 60 53.704 60 45.9375V14.0625C60 6.296 53.704 0 45.9375 0Z" fill="#5865F2"/>
<mask id="mask0_372_676" style="mask-type:luminance" maskUnits="userSpaceOnUse" x="6" y="11" width="48" height="38">
<path d="M53.4375 11.9531H6.5625V48.2648H53.4375V11.9531Z" fill="white"/>
</mask>
<g mask="url(#mask0_372_676)">
<path d="M46.2441 15.1867C43.2565 13.8158 40.0528 12.8058 36.7029 12.2273C36.642 12.2162 36.581 12.2441 36.5496 12.2999C36.1376 13.0327 35.681 13.9888 35.3616 14.7402C31.7585 14.2008 28.1742 14.2008 24.6452 14.7402C24.3255 13.9721 23.8526 13.0327 23.4387 12.2999C23.4072 12.2459 23.3463 12.2181 23.2853 12.2273C19.9373 12.804 16.7335 13.814 13.744 15.1867C13.7181 15.1978 13.696 15.2164 13.6812 15.2406C7.60427 24.3194 5.93955 33.1751 6.75621 41.921C6.75991 41.9639 6.78391 42.0047 6.81719 42.0307C10.8266 44.9751 14.7104 46.7627 18.522 47.9475C18.583 47.966 18.6477 47.9437 18.6865 47.8936C19.5881 46.6622 20.3919 45.364 21.081 43.9987C21.1217 43.9186 21.0829 43.8239 20.9997 43.7922C19.7249 43.3085 18.5109 42.719 17.3432 42.0494C17.2509 41.9955 17.2435 41.8633 17.3284 41.8C17.5742 41.6158 17.82 41.4243 18.0546 41.231C18.0971 41.1956 18.1562 41.1881 18.2061 41.2104C25.8776 44.7129 34.1827 44.7129 41.7635 41.2104C41.8134 41.1862 41.8727 41.1937 41.917 41.2291C42.1516 41.4225 42.3973 41.6158 42.645 41.8C42.7298 41.8633 42.7245 41.9955 42.6321 42.0494C41.4642 42.7319 40.2504 43.3085 38.9737 43.7904C38.8905 43.822 38.8535 43.9186 38.8943 43.9987C39.5981 45.3621 40.4018 46.6603 41.2868 47.8917C41.3238 47.9437 41.3904 47.966 41.4513 47.9475C45.2815 46.7627 49.1653 44.9751 53.1748 42.0307C53.2097 42.0047 53.232 41.9655 53.2357 41.9229C54.213 31.8117 51.5986 23.0286 46.305 15.2425C46.2921 15.2164 46.2701 15.1978 46.2441 15.1867ZM22.2266 36.5958C19.917 36.5958 18.0139 34.4754 18.0139 31.8712C18.0139 29.2671 19.8801 27.1467 22.2266 27.1467C24.5916 27.1467 26.4762 29.2858 26.4391 31.8712C26.4391 34.4754 24.573 36.5958 22.2266 36.5958ZM37.8023 36.5958C35.4926 36.5958 33.5897 34.4754 33.5897 31.8712C33.5897 29.2671 35.4558 27.1467 37.8023 27.1467C40.1672 27.1467 42.0518 29.2858 42.015 31.8712C42.015 34.4754 40.1672 36.5958 37.8023 36.5958Z" fill="white"/>
</g>
</g>
<defs>
<clipPath id="clip0_372_676">
<rect width="60" height="60" fill="white"/>
</clipPath>
</defs>
</svg>
