<svg width="40" height="60" viewBox="0 0 40 60" fill="none" xmlns="http://www.w3.org/2000/svg">
<mask id="mask0_372_683" style="mask-type:luminance" maskUnits="userSpaceOnUse" x="0" y="0" width="41" height="60">
<path d="M40.008 0H0V60H40.008V0Z" fill="white"/>
</mask>
<g mask="url(#mask0_372_683)">
<path d="M10.0049 60C15.525 60 20.0049 55.5201 20.0049 50.0001V39.9999H10.0049C4.4849 39.9999 0.00488281 44.4801 0.00488281 50.0001C0.00488281 55.5201 4.4849 60 10.0049 60Z" fill="#0ACF83"/>
<path d="M0.00488281 30C0.00488281 24.48 4.4849 20 10.0049 20H20.0049V39.9999H10.0049C4.4849 39.9999 0.00488281 35.52 0.00488281 30Z" fill="#A259FF"/>
<path d="M0.00488281 9.99999C0.00488281 4.47999 4.4849 0 10.0049 0H20.0049V20H10.0049C4.4849 20 0.00488281 15.52 0.00488281 9.99999Z" fill="#F24E1E"/>
<path d="M20.0049 0H30.0048C35.5248 0 40.005 4.47999 40.005 9.99999C40.005 15.52 35.5248 20 30.0048 20H20.0049V0Z" fill="#FF7262"/>
<path d="M40.005 30C40.005 35.52 35.5248 39.9999 30.0048 39.9999C24.4848 39.9999 20.0049 35.52 20.0049 30C20.0049 24.48 24.4848 20 30.0048 20C35.5248 20 40.005 24.48 40.005 30Z" fill="#1ABCFE"/>
</g>
</svg>
