<svg width="60" height="59" viewBox="0 0 60 59" fill="none" xmlns="http://www.w3.org/2000/svg">
<path d="M30.0003 0C13.4337 0 0 13.4312 0 30.0003C0 43.2552 8.59599 54.5004 20.516 58.4673C22.0152 58.7451 22.5657 57.8166 22.5657 57.0243C22.5657 56.3088 22.5378 53.9457 22.5249 51.4389C14.1789 53.2536 12.4178 47.8992 12.4178 47.8992C11.0531 44.4315 9.08682 43.5096 9.08682 43.5096C6.36489 41.6475 9.29199 41.6859 9.29199 41.6859C12.3045 41.8974 13.8908 44.7774 13.8908 44.7774C16.5665 49.3638 20.909 48.0378 22.6209 47.2713C22.8903 45.3321 23.6676 44.0088 24.5256 43.2597C17.8622 42.501 10.8574 39.9285 10.8574 28.4334C10.8574 25.158 12.0293 22.4817 13.9484 20.3809C13.6369 19.6253 12.6101 16.5739 14.2391 12.4417C14.2391 12.4417 16.7583 11.6354 22.4913 15.5168C24.8844 14.8521 27.4506 14.5187 30.0003 14.5073C32.5497 14.5187 35.1183 14.8521 37.5156 15.5168C43.2417 11.6354 45.7575 12.4417 45.7575 12.4417C47.3904 16.5739 46.3632 19.6253 46.0515 20.3809C47.9751 22.4817 49.1391 25.158 49.1391 28.4334C49.1391 39.9561 42.1209 42.4932 35.4405 43.2357C36.5166 44.1669 37.4754 45.9924 37.4754 48.7914C37.4754 52.8054 37.4406 56.0361 37.4406 57.0243C37.4406 57.8226 37.9806 58.758 39.5013 58.4634C51.4149 54.492 60 43.2507 60 30.0003C60 13.4312 46.5681 0 30.0003 0ZM11.2361 42.7359C11.17 42.885 10.9355 42.9297 10.7219 42.8274C10.5043 42.7296 10.3821 42.5262 10.4526 42.3768C10.5172 42.2232 10.7522 42.1806 10.9693 42.2835C11.1874 42.3813 11.3116 42.5865 11.2361 42.7359ZM12.7118 44.0526C12.5687 44.1855 12.289 44.1237 12.0992 43.914C11.903 43.7049 11.8662 43.4253 12.0113 43.2906C12.1588 43.158 12.4301 43.2201 12.6268 43.4292C12.823 43.641 12.8613 43.9185 12.7118 44.0526ZM13.7241 45.7374C13.5403 45.8652 13.2397 45.7455 13.054 45.4785C12.8701 45.2118 12.8701 44.892 13.0579 44.7636C13.2442 44.6355 13.5403 44.7507 13.7286 45.0156C13.9119 45.2868 13.9119 45.6069 13.7241 45.7374ZM15.4363 47.6886C15.2718 47.8698 14.9216 47.8212 14.6652 47.5737C14.4029 47.3319 14.3299 46.9887 14.4948 46.8072C14.6613 46.6254 15.0135 46.6767 15.2718 46.9221C15.5321 47.1633 15.6116 47.5092 15.4363 47.6886ZM17.649 48.3471C17.5765 48.5823 17.2392 48.6891 16.8994 48.5892C16.5601 48.4863 16.338 48.2112 16.4066 47.9736C16.4771 47.7372 16.8159 47.6259 17.1582 47.7327C17.497 47.835 17.7196 48.1083 17.649 48.3471ZM20.1673 48.6267C20.1757 48.8739 19.8876 49.0791 19.5309 49.0836C19.1722 49.0917 18.8821 48.8913 18.8781 48.648C18.8781 48.3981 19.1598 48.195 19.5185 48.189C19.8752 48.1821 20.1673 48.3807 20.1673 48.6267ZM22.641 48.5319C22.6839 48.7731 22.4361 49.0212 22.0818 49.0872C21.7335 49.1508 21.4111 49.0017 21.3669 48.7623C21.3236 48.5148 21.576 48.267 21.9237 48.2028C22.2786 48.1413 22.596 48.2865 22.641 48.5319Z" fill="white"/>
</svg>
