<svg width="60" height="60" viewBox="0 0 60 60" fill="none" xmlns="http://www.w3.org/2000/svg">
<path d="M29.9998 51.5628L38.8034 25.0334H21.1973L29.9998 51.5618V51.5628Z" fill="#E24329"/>
<path d="M29.9997 51.5628L21.1971 25.0334H8.85938L29.9997 51.5618V51.5628Z" fill="#FC6D26"/>
<path d="M8.85955 25.0327L6.18345 33.0952C5.939 33.8302 6.20549 34.6359 6.84486 35.0904L30 51.5627L8.85955 25.0334V25.0327Z" fill="#FCA326"/>
<path d="M8.85938 25.0324H21.1971L15.8946 9.05379C15.6218 8.23207 14.4333 8.23207 14.1609 9.05379L8.85938 25.0331V25.0324Z" fill="#E24329"/>
<path d="M30 51.5628L38.8036 25.0334H51.1418L30 51.5618V51.5628Z" fill="#FC6D26"/>
<path d="M51.1413 25.0327L53.817 33.0952C54.0609 33.8302 53.7935 34.6359 53.1551 35.0904L30 51.5627L51.1413 25.0334V25.0327Z" fill="#FCA326"/>
<path d="M51.1412 25.0324H38.8037L44.1057 9.05403C44.3788 8.23231 45.5671 8.23231 45.8394 9.05403L51.1419 25.0331L51.1412 25.0324Z" fill="#E24329"/>
</svg>
