<svg width="60" height="60" viewBox="0 0 60 60" fill="none" xmlns="http://www.w3.org/2000/svg">
<g clip-path="url(#clip0_372_696)">
<path d="M45.9375 0H14.0625C6.296 0 0 6.296 0 14.0625V45.9375C0 53.704 6.296 60 14.0625 60H45.9375C53.704 60 60 53.704 60 45.9375V14.0625C60 6.296 53.704 0 45.9375 0Z" fill="#330000"/>
<path d="M28.9997 35.703H19.6997L17.7997 41.5781C17.7497 41.8031 17.5497 41.9531 17.3247 41.928H12.6247C12.3497 41.928 12.2747 41.778 12.3497 41.478L20.3997 18.3031C20.4747 18.0531 20.5497 17.7781 20.6497 17.4781C20.7497 16.9531 20.7997 16.4031 20.7997 15.8531C20.7747 15.7281 20.8747 15.6031 20.9997 15.5781H21.0747H27.4746C27.6747 15.5781 27.7746 15.6531 27.7997 15.7781L36.9246 41.5282C36.9996 41.8031 36.9246 41.928 36.6747 41.928H31.4496C31.2747 41.9531 31.0997 41.8282 31.0497 41.6531L28.9997 35.703ZM21.1497 30.6281H27.4997C27.3497 30.1031 27.1497 29.478 26.9247 28.8281C26.6997 28.1531 26.4747 27.4282 26.2497 26.6782C25.9997 25.9031 25.7747 25.1531 25.5246 24.378C25.2747 23.6032 25.0497 22.8781 24.8496 22.1531C24.6497 21.4531 24.4746 20.8031 24.2997 20.2031H24.2496C24.0246 21.2781 23.7497 22.3531 23.3997 23.4281C23.0247 24.6281 22.6497 25.878 22.2497 27.1282C21.8997 28.4032 21.5247 29.5781 21.1497 30.6281Z" fill="#FF9A00"/>
<path d="M42.5003 19.9532C41.6753 19.9782 40.8753 19.6532 40.2753 19.0782C39.7004 18.4532 39.4004 17.6282 39.4253 16.7782C39.4004 15.9282 39.7253 15.1282 40.3253 14.5532C40.9253 13.9782 41.7254 13.6782 42.5504 13.6782C43.5254 13.6782 44.2754 13.9782 44.8253 14.5532C45.3753 15.1532 45.6753 15.9532 45.6503 16.7782C45.6753 17.6282 45.3753 18.4532 44.7753 19.0782C44.2004 19.6782 43.3503 20.0032 42.5003 19.9532ZM39.7004 41.6531V22.4032C39.7004 22.1532 39.8003 22.0532 40.0253 22.0532H44.9753C45.2003 22.0532 45.3003 22.1782 45.3003 22.4032V41.6531C45.3003 41.9281 45.2003 42.0532 44.9753 42.0532H40.0754C39.8253 42.0532 39.7004 41.9032 39.7004 41.6531Z" fill="#FF9A00"/>
</g>
<defs>
<clipPath id="clip0_372_696">
<rect width="60" height="60" fill="white"/>
</clipPath>
</defs>
</svg>
