<svg width="60" height="60" viewBox="0 0 60 60" fill="none" xmlns="http://www.w3.org/2000/svg">
<path d="M28.0353 0.0161438C27.9063 0.0278721 27.4956 0.0689363 27.126 0.098242C18.6041 0.86646 10.6217 5.46404 5.56599 12.5305C2.75073 16.4595 0.95016 20.9164 0.26979 25.637C0.0293399 27.285 0 27.7718 0 30.0059C0 32.2402 0.0293399 32.7271 0.26979 34.3747C1.90029 45.6399 9.91788 55.105 20.7918 58.6118C22.7391 59.2393 24.7917 59.6673 27.126 59.9253C28.0353 60.0249 31.9647 60.0249 32.874 59.9253C36.9033 59.4796 40.3167 58.4828 43.6833 56.7644C44.1993 56.5007 44.2992 56.4302 44.2287 56.3717C44.1819 56.3363 41.9823 53.3866 39.3432 49.8213L34.5456 43.3413L28.5336 34.4452C25.2258 29.5544 22.5045 25.5548 22.4808 25.5548C22.4574 25.5491 22.434 29.5016 22.4223 34.3279C22.4046 42.7783 22.3989 43.1185 22.2933 43.3176C22.1409 43.605 22.0236 43.7223 21.777 43.8515C21.5894 43.9451 21.4252 43.9628 20.5396 43.9628H19.5249L19.2551 43.7928C19.0792 43.6815 18.9502 43.5348 18.8622 43.3647L18.739 43.1008L18.7507 31.3431L18.7683 19.5793L18.9502 19.3506C19.044 19.2274 19.2434 19.0691 19.3842 18.9929C19.6246 18.8756 19.7185 18.8638 20.7332 18.8638C21.9297 18.8638 22.1289 18.9108 22.44 19.2509C22.5279 19.3447 25.7829 24.2473 29.6775 30.1525C33.5718 36.0578 38.8974 44.1212 41.5131 48.0794L46.2639 55.2751L46.5045 55.1167C48.6333 53.7327 50.8857 51.7623 52.6686 49.7097C56.4633 45.3525 58.9092 40.0397 59.7303 34.3747C59.9706 32.7271 60 32.2402 60 30.0059C60 27.7718 59.9706 27.285 59.7303 25.637C58.0998 14.3718 50.082 4.90693 39.2082 1.40011C37.2903 0.778512 35.2494 0.350415 32.9619 0.0923927C32.3988 0.0337512 28.5219 -0.0307694 28.0353 0.0161438ZM40.3167 18.1601C40.5981 18.3009 40.827 18.5706 40.9092 18.8521C40.956 19.0046 40.9677 22.2652 40.956 29.6129L40.9383 40.157L39.0792 37.3068L37.2141 34.4569V26.7924C37.2141 21.8372 37.2375 19.0515 37.2726 18.9166C37.3665 18.5882 37.5717 18.3302 37.8534 18.1777C38.0937 18.0546 38.1819 18.0429 39.1026 18.0429C39.9708 18.0429 40.1232 18.0546 40.3167 18.1601Z" fill="#1D1B1B"/>
</svg>
