<svg width="60" height="60" viewBox="0 0 60 60" fill="none" xmlns="http://www.w3.org/2000/svg">
<g clip-path="url(#clip0_372_692)">
<path d="M45.9375 0H14.0625C6.296 0 0 6.296 0 14.0625V45.9375C0 53.704 6.296 60 14.0625 60H45.9375C53.704 60 60 53.704 60 45.9375V14.0625C60 6.296 53.704 0 45.9375 0Z" fill="#001E36"/>
<path d="M13.5 41.7281V16.0031C13.5 15.8281 13.575 15.7281 13.75 15.7281C14.175 15.7281 14.575 15.7281 15.15 15.7031C15.75 15.6781 16.375 15.6781 17.05 15.6531C17.725 15.6281 18.45 15.6281 19.225 15.6031C20 15.5781 20.75 15.5781 21.5 15.5781C23.55 15.5781 25.2499 15.8281 26.6501 16.3531C27.9 16.7781 29.0501 17.4781 30 18.4031C30.7999 19.2031 31.425 20.1781 31.8251 21.2531C32.2001 22.3031 32.4 23.3781 32.4 24.5032C32.4 26.6531 31.9001 28.4281 30.9 29.8282C29.8999 31.2281 28.5 32.2781 26.8751 32.8781C25.1749 33.5032 23.3 33.7282 21.25 33.7282C20.65 33.7282 20.25 33.7282 20 33.7031C19.75 33.6781 19.4 33.6781 18.925 33.6781V41.7031C18.95 41.8781 18.825 42.0281 18.65 42.0532C18.625 42.0532 18.6 42.0532 18.55 42.0532H13.8C13.6 42.0532 13.5 41.9531 13.5 41.7281ZM18.95 20.5531V28.9531C19.3 28.9781 19.625 29.0032 19.925 29.0032H21.25C22.225 29.0032 23.2 28.8532 24.1249 28.5532C24.9251 28.3282 25.6249 27.8531 26.175 27.2281C26.7 26.6032 26.9501 25.7531 26.9501 24.6532C26.9749 23.8781 26.775 23.1031 26.3749 22.4281C25.95 21.7781 25.35 21.2781 24.6251 21.0031C23.7 20.6281 22.7 20.4781 21.675 20.5031C21.025 20.5031 20.45 20.5031 19.975 20.5281C19.475 20.5031 19.125 20.5281 18.95 20.5531Z" fill="#31A8FF"/>
<path d="M47.9995 27.4282C47.2495 27.0281 46.4496 26.7532 45.5995 26.5781C44.6744 26.3782 43.7496 26.253 42.7994 26.253C42.2995 26.2282 41.7745 26.3032 41.2994 26.4281C40.9746 26.5031 40.6994 26.6782 40.5246 26.928C40.3994 27.1282 40.3244 27.378 40.3244 27.603C40.3244 27.828 40.4245 28.053 40.5745 28.2532C40.7995 28.5281 41.0995 28.7531 41.4246 28.9282C41.9995 29.2282 42.5995 29.5031 43.1995 29.7532C44.5495 30.2032 45.8496 30.828 47.0496 31.578C47.8746 32.103 48.5496 32.8031 49.0244 33.6532C49.4245 34.4531 49.6244 35.328 49.5996 36.228C49.6244 37.4032 49.2745 38.5781 48.6246 39.5531C47.9245 40.5532 46.9495 41.328 45.8245 41.778C44.5994 42.303 43.0994 42.5782 41.2994 42.5782C40.1496 42.5782 39.0246 42.4781 37.8996 42.2531C37.0244 42.1031 36.1495 41.8282 35.3496 41.4532C35.1745 41.3531 35.0496 41.178 35.0744 40.9781V36.6281C35.0744 36.5531 35.0995 36.453 35.1745 36.4031C35.2495 36.3532 35.3245 36.378 35.3995 36.4282C36.3745 37.0031 37.3994 37.4032 38.4996 37.653C39.4495 37.9031 40.4496 38.028 41.4494 38.028C42.3996 38.028 43.0746 37.9031 43.5246 37.6781C43.9244 37.503 44.1996 37.0781 44.1996 36.6281C44.1996 36.2782 43.9994 35.9531 43.5996 35.628C43.1995 35.3032 42.3745 34.9282 41.1494 34.4531C39.8744 34.0031 38.6995 33.4031 37.5996 32.6531C36.8245 32.103 36.1746 31.3781 35.6995 30.528C35.2994 29.7281 35.0995 28.8532 35.1246 27.978C35.1246 26.9032 35.4246 25.878 35.9744 24.9532C36.5995 23.9531 37.5246 23.1531 38.5994 22.6531C39.7746 22.0531 41.2495 21.7781 43.0244 21.7781C44.0496 21.7781 45.0996 21.8531 46.1245 22.0031C46.8745 22.1031 47.5994 22.3031 48.2744 22.5781C48.3745 22.6031 48.4746 22.7031 48.5245 22.8031C48.5496 22.9031 48.5744 23.0031 48.5744 23.1031V27.1781C48.5744 27.2782 48.5245 27.378 48.4495 27.4282C48.2245 27.4781 48.0996 27.4781 47.9995 27.4282Z" fill="#31A8FF"/>
</g>
<defs>
<clipPath id="clip0_372_692">
<rect width="60" height="60" fill="white"/>
</clipPath>
</defs>
</svg>
