<svg width="60" height="60" viewBox="0 0 60 60" fill="none" xmlns="http://www.w3.org/2000/svg">
<g clip-path="url(#clip0_372_718)">
<path d="M45.9375 0H14.0625C6.296 0 0 6.296 0 14.0625V45.9375C0 53.704 6.296 60 14.0625 60H45.9375C53.704 60 60 53.704 60 45.9375V14.0625C60 6.296 53.704 0 45.9375 0Z" fill="url(#paint0_linear_372_718)"/>
<path d="M2.6923 30.2529L14.4823 35.0304V38.3747L0.525391 31.908V29.9459L2.6923 30.2529ZM14.4823 26.3287L2.70936 31.1742L0.525391 31.4133V29.434L14.4823 22.9845V26.3287Z" fill="white"/>
<path d="M56.5717 30.9354L44.4404 26.2092V22.9503L59.0115 29.3998V31.3962L56.5717 30.9354ZM44.4404 35.0986L56.6059 30.27L59.0115 29.9116V31.8909L44.4404 38.3576V35.0986Z" fill="white"/>
<path fill-rule="evenodd" clip-rule="evenodd" d="M41.2676 14.3201C41.2001 15.3903 40.718 16.5078 40.8523 17.5482C41.6944 19.0373 43.5479 19.2749 45.0769 19.3769C46.1363 19.5662 46.1229 18.8648 46.0519 18.0768C46.0561 16.8172 46.0604 15.5575 46.0648 14.2979C44.4657 14.3036 42.8661 14.282 41.2676 14.3201ZM28.658 17.3132C26.0546 17.755 23.4156 18.9991 21.2497 20.4968C19.5064 21.8535 22.7462 23.1684 23.9215 23.3882C26.2864 23.417 28.3838 21.822 29.9372 20.1663C30.4444 19.47 31.0779 18.4045 30.4407 17.5977C29.9541 17.1757 29.2465 17.2781 28.658 17.3132ZM34.1979 21.0994C32.0574 21.507 30.0207 22.3893 28.2186 23.6177C26.8974 24.0326 25.8085 25.4831 27.4456 26.2099C29.1647 27.5798 31.1572 27.2442 32.7404 26.3194C34.1902 25.4576 35.7563 24.3942 36.4271 22.7719C37.0606 20.9947 35.4261 20.9287 34.1979 21.0994ZM40.2704 27.986C39.8717 29.651 38.195 30.408 37.3029 31.7273C36.5736 32.6897 36.9113 33.8234 37.7417 34.5809C38.146 35.4192 38.8547 35.8877 39.6148 35.1595C41.5723 33.8287 42.1137 31.2366 42.0324 28.9905C42.177 28.0629 41.1127 28.9015 40.2704 27.986ZM32.8212 31.1133C30.2218 31.5581 27.6219 32.8247 25.4551 34.32C23.7729 35.6749 26.941 36.9401 28.126 37.1407C30.5347 37.1442 32.6832 35.5919 34.2061 33.829C34.7358 33.1289 35.3778 31.7693 34.329 31.2127C33.86 31.0139 33.3155 31.0723 32.8212 31.1133Z" fill="#B956A6"/>
<path fill-rule="evenodd" clip-rule="evenodd" d="M21.2502 20.4968C19.251 21.2967 17.3223 22.268 15.418 23.2851C15.064 24.6012 15.3478 26.2308 15.2561 27.6738C15.2491 33.6073 15.2525 39.5409 15.2514 45.4744C16.7218 45.4744 18.1922 45.4744 19.6626 45.4744C20.5531 44.6358 21.6689 44.0219 22.6362 43.2605C26.3613 40.5888 30.0853 37.9069 33.8056 35.2427C34.0793 35.3658 33.904 33.6323 33.3035 34.8363C31.8806 36.1753 29.992 37.2766 27.9931 37.1691C26.8587 36.7959 25.0301 36.1629 25.0186 34.7728C25.8171 33.8327 23.5453 35.265 22.9238 35.4701C20.9029 36.4404 18.9298 37.5239 16.9048 38.4762C17.3916 37.9535 18.3021 37.4662 18.9473 36.9478C23.5582 33.638 28.1679 30.3152 32.7898 27.008C33.6788 26.3838 34.5375 25.703 35.4539 25.1196C35.5376 25.4428 35.6946 23.5744 35.0131 24.7247C33.6237 26.1019 31.7496 27.127 29.7731 27.1411C28.6615 26.8036 26.2938 25.9966 26.8209 24.5613C27.0781 24.0576 24.4331 25.635 25.6017 24.7455C26.8456 23.8366 28.0992 22.9439 29.3527 22.0444C29.9857 21.9967 29.8509 19.6454 28.9908 21.1622C27.5459 22.4317 25.6474 23.5934 23.6573 23.3181C22.5394 22.9962 21.198 22.3729 20.7917 21.2038C20.6571 20.923 21.5444 20.4856 21.2502 20.4968ZM29.5327 21.9483C29.4218 22.2654 29.7335 21.8324 29.5327 21.9483V21.9483Z" fill="#FCCC44"/>
<path fill-rule="evenodd" clip-rule="evenodd" d="M42.1636 18.9256C41.5394 21.9062 40.8571 25.0254 40.2705 27.986C41.9561 30.1104 42.1195 26.644 42.4143 25.6638C42.8908 23.6152 43.4552 22.0682 43.515 19.9471C43.6415 19.2233 42.7907 18.7848 42.1636 18.9256ZM44.0974 21.2628C44.0446 21.5685 44.1743 21.3203 44.0974 21.2628V21.2628ZM42.131 27.9459C42.2121 27.7711 42.2121 28.1205 42.131 27.9459V27.9459Z" fill="#62777F"/>
<path fill-rule="evenodd" clip-rule="evenodd" d="M43.2693 19.2631C43.7953 22.217 42.0532 25.8052 41.4834 28.59C42.7771 27.638 43.7768 23.3184 44.0322 21.6277C44.0981 21.4343 44.1792 20.9476 44.1968 20.9302C44.2781 20.5197 45.0358 19.8243 45.0773 19.377C45.5184 19.0656 42.9093 19.0155 43.2693 19.2631ZM42.1966 27.9459C42.1153 27.7711 42.1153 28.1206 42.1966 27.9459V27.9459Z" fill="#4E5E67"/>
<path fill-rule="evenodd" clip-rule="evenodd" d="M21.2936 20.546C20.5643 21.2762 20.838 21.0979 21.381 20.4906L21.2936 20.546ZM29.1828 20.9077C28.3379 22.1773 25.291 23.239 24.9073 23.3212C26.7401 22.978 28.4485 21.8379 29.6506 20.5021C29.4596 20.5872 29.3461 20.7873 29.1828 20.9077ZM20.7925 21.3199C21.2479 22.4149 22.9039 23.1425 23.7085 23.3122C22.6099 22.9584 21.3168 22.3306 20.7925 21.3199ZM29.4668 21.9531C29.2369 22.2246 28.418 22.6308 27.9863 23.0288C27.0603 23.712 26.1024 24.3466 25.1869 25.0467C25.7698 25.0216 27.4779 23.7457 26.6023 25.0404C27.3443 26.3175 28.9599 27.2055 30.4329 27.1245C32.3783 26.8191 34.1722 25.7435 35.4617 24.2477C33.8963 25.7967 31.8268 27.2545 29.5367 27.0537C28.4283 26.7977 25.3997 25.2333 27.4257 24.1366C28.14 23.5491 29.3717 23.2412 29.5111 22.2087C29.4818 22.0798 29.7221 21.954 29.4668 21.9531ZM23.9218 23.3883C24.6589 23.292 24.6589 23.4846 23.9218 23.3883V23.3883ZM35.4068 25.152C32.4821 27.1896 29.5997 29.307 26.7003 31.3812C23.4144 33.7329 20.1425 36.0933 16.8574 38.4431C18.0926 38.0266 19.3301 37.2134 20.5571 36.6516C22.2467 35.7577 24.0286 35.0515 25.6097 33.9656C28.7358 32.1253 32.0419 30.372 34.4464 27.5564C34.9711 26.9409 35.4973 25.9502 35.5208 25.2839C35.445 25.3052 35.5025 25.0174 35.4068 25.152ZM25.4553 34.32C24.9291 34.9146 24.7154 35.3395 25.2615 34.5834C25.2518 34.6711 25.7047 34.114 25.4553 34.32ZM33.4606 34.6045C32.0745 36.0661 30.0244 37.1203 28.1009 37.1913C30.3247 37.2075 32.3309 35.8875 33.8375 34.3303C33.7386 34.2108 33.5382 34.6087 33.4606 34.6045ZM33.8841 35.0639C29.2273 38.4539 24.4097 41.9702 19.7372 45.348C20.4734 45.5789 22.076 45.6872 22.8074 44.7448C24.3638 43.6709 26.1134 42.8813 27.6748 41.7928C29.9358 40.3256 32.3567 38.722 33.6408 36.2562C33.702 35.9255 34.1565 35.3306 33.8841 35.0639ZM25.0217 35.2791C25.2378 36.1913 27.9392 37.2382 27.6462 37.0378C26.6501 36.6886 25.662 36.1444 25.0217 35.2791Z" fill="#DC9624"/>
</g>
<defs>
<linearGradient id="paint0_linear_372_718" x1="0" y1="60" x2="60" y2="0" gradientUnits="userSpaceOnUse">
<stop stop-color="#DB7093"/>
<stop offset="1" stop-color="#F3B661"/>
</linearGradient>
<clipPath id="clip0_372_718">
<rect width="60" height="60" fill="white"/>
</clipPath>
</defs>
</svg>
