<svg width="70" height="70" viewBox="0 0 200 200" fill="none" xmlns="http://www.w3.org/2000/svg">
<path d="M168.751 106.25L167.751 106.813C167.679 105.199 166.984 103.676 165.813 102.563C165.018 101.442 163.934 100.558 162.677 100.003C161.421 99.4478 160.037 99.2427 158.673 99.4092C157.309 99.5757 156.016 100.108 154.929 100.949C153.843 101.79 153.004 102.909 152.501 104.188C152.188 104.875 156.938 111.063 156.751 111.75C155.173 112.456 153.758 113.481 152.596 114.761C151.434 116.041 150.551 117.548 150.001 119.188C150.626 116.25 148.438 114.875 145.126 115.938C143.464 116.465 141.959 117.399 140.748 118.653C139.537 119.908 138.657 121.445 138.188 123.125C138.626 120.188 136.251 118.625 132.876 119.438C131.238 119.786 129.732 120.594 128.537 121.768C127.341 122.941 126.505 124.431 126.126 126.063C126.438 123.188 123.876 121.313 120.438 121.875C118.857 122.092 117.391 122.82 116.262 123.949C115.134 125.077 114.406 126.544 114.188 128.125C114.188 125.188 111.626 123.125 107.938 123.313C106.403 123.301 104.917 123.856 103.764 124.87C102.612 125.885 101.873 127.288 101.688 128.813C101.462 127.322 100.705 125.964 99.5569 124.988C98.4084 124.011 96.9457 123.483 95.4385 123.5C92.001 123.5 89.1885 125.5 89.1885 128.375C88.9434 126.742 88.1572 125.238 86.956 124.105C85.7548 122.972 84.2081 122.275 82.5635 122.125C79.126 121.688 76.3135 123.563 77.001 126.5C76.602 124.864 75.7424 123.376 74.524 122.213C73.3055 121.049 71.7793 120.26 70.126 119.938C66.751 119.188 64.376 120.875 64.9385 123.813C64.4068 122.163 63.4796 120.668 62.2377 119.459C60.9958 118.25 59.4769 117.363 57.8135 116.875C54.501 115.813 52.3135 117.25 53.001 120.188C52.3135 117.25 44.9385 104.875 44.126 103.063C41.9385 98 37.876 96.4375 34.1885 99.6875C33.3004 100.657 32.6829 101.843 32.3977 103.126C32.1124 104.41 32.1696 105.746 32.5635 107C30.251 106.375 29.0635 107.5 29.9385 109.938C34.5635 123.563 39.1885 137.313 43.001 151.188C44.0611 157.81 46.8413 164.039 51.0635 169.25C54.5623 172.286 58.5583 174.696 62.876 176.375C75.1621 181.237 88.2899 183.616 101.501 183.375C116.415 183.532 131.147 180.079 144.438 173.313C149.238 171.101 153.109 167.274 155.376 162.5C158.688 154.125 161.126 145.313 163.688 136.938C166.626 127.375 168.813 117.25 172.563 108.313C173.501 105.563 171.751 104.563 168.751 106.25Z" fill="#48A2AD"/>
<path d="M101.062 144.625C137.437 144.625 167 132.75 167 118.125C167 103.5 137.5 91.625 101.062 91.625C64.625 91.625 35.125 103.5 35.125 118.125C35.125 132.75 64.625 144.625 101.062 144.625Z" fill="url(#paint0_radial_512_53)"/>
<path d="M157.062 80.3125C155.711 78.9575 154.175 77.8002 152.499 76.875C152.499 76.875 110.499 90.5 81.2495 89.0625C51.9995 87.625 56.2495 84.375 41.4995 93.75C41.4995 93.75 37.437 99.5625 42.3745 103.125C49.6566 108.026 57.6156 111.837 65.9995 114.437C66.8622 113.697 67.931 113.239 69.062 113.125C96.937 103.5 151.187 115.813 157.062 80.3125Z" fill="url(#paint1_linear_512_53)"/>
<path d="M157 80.3125C151.125 115.75 96.9375 103.5 69.0625 113.188C67.9126 113.301 66.8236 113.758 65.9375 114.5C88.4375 121.75 115.937 123.25 134.312 117.125C157.375 109.437 167.813 91.25 157 80.3125Z" fill="#EB5E8E"/>
<path d="M145.126 54.125C147.774 56.0498 149.895 58.6102 151.293 61.5703C152.691 64.5303 153.321 67.7947 153.126 71.0625C153.126 83.5625 142.938 99.0625 97.8758 94.5625C52.8133 90.0625 41.6258 93.875 41.6258 93.875C41.6258 93.875 27.9383 75.125 56.5008 75.125C82.1258 75.125 120.188 78.25 129.126 72.5625C142.563 64.3125 143.063 64.0625 145.126 54.125Z" fill="url(#paint2_linear_512_53)"/>
<path d="M93.1257 45.0625C106.938 36.4375 106.251 23.8125 99.3757 13.125C98.995 13.3258 98.7016 13.66 98.5517 14.0636C98.4018 14.4671 98.4059 14.9118 98.5633 15.3125C99.5837 17.0773 100.157 19.0648 100.233 21.1019C100.309 23.139 99.8864 25.1639 99.0007 27C95.0008 32.625 87.6883 34.0625 75.6258 40.75C63.5633 47.4375 59.7508 53.25 58.9383 60.875C58.9283 61.2304 59.0164 61.5816 59.1928 61.8903C59.3692 62.1989 59.6271 62.4531 59.9383 62.625C62.343 63.7515 64.8559 64.631 67.4383 65.25C71.7508 55.25 83.8757 50 93.1257 45.0625Z" fill="#F77CA5"/>
<path d="M123.375 28.9999C117.199 22.25 109.714 16.8275 101.375 13.0624C101.105 12.9201 100.805 12.8457 100.5 12.8457C100.195 12.8457 99.8947 12.9201 99.625 13.0624C106.25 23.7499 107 36.3124 93.375 44.9999C84.1875 49.5624 72 55.1874 67.9375 65.1874C73.4425 66.5503 79.0804 67.3048 84.75 67.4374C102.438 67.9374 126.188 66.9999 130.25 60.0624C134.313 53.1249 130.687 36.8749 123.375 28.9999Z" fill="url(#paint3_linear_512_53)"/>
<path d="M143.75 51.75C144.066 50.9164 144.316 50.0597 144.5 49.1875C140.457 44.3218 134.882 40.9725 128.688 39.6875C140.687 65.3125 78.0625 59.75 60.25 60.8125C57.4331 60.8085 54.6565 61.4822 52.1547 62.7766C49.6528 64.0711 47.499 65.9483 45.875 68.25C49.9191 66.4461 54.0986 64.9623 58.375 63.8125C86.4375 57.125 131.875 85.1875 143.75 51.75Z" fill="#F79EBC"/>
<path d="M146.438 53.1875C146.093 51.7618 145.501 50.4078 144.688 49.1875C144.51 50.0684 144.237 50.9275 143.875 51.75C131.875 85.1875 86.4375 57.125 58.4375 63.8125C54.1621 64.9655 49.9829 66.4491 45.9375 68.25C43.8752 71.3995 42.7085 75.0507 42.5625 78.8125C60.8125 73.25 74.3125 78.8125 109.438 79.375C144.563 79.9375 148.938 63.6875 146.438 53.1875Z" fill="url(#paint4_linear_512_53)"/>
<path d="M168.751 116.25C165.405 117.844 162.775 120.63 161.376 124.062C162.251 121.187 160.251 120 157.001 121.187C155.343 121.8 153.834 122.758 152.574 123.997C151.313 125.236 150.33 126.728 149.688 128.375C150.376 125.562 148.251 124.187 144.876 125.125C143.184 125.487 141.615 126.282 140.322 127.433C139.029 128.583 138.057 130.049 137.501 131.687C138.001 128.937 135.688 127.375 132.251 128C130.63 128.266 129.123 128.999 127.912 130.109C126.702 131.219 125.842 132.658 125.438 134.25C125.751 131.562 123.251 129.75 119.813 130.125C118.265 130.186 116.781 130.759 115.593 131.755C114.406 132.75 113.582 134.111 113.251 135.625C113.251 132.937 110.751 130.937 107.313 131C103.876 131.062 101.063 133.312 101.063 136C100.797 134.544 100.023 133.23 98.8783 132.291C97.7338 131.353 96.2933 130.851 94.8134 130.875C91.3759 130.875 88.5634 132.687 88.5634 135.375C88.253 133.896 87.4801 132.553 86.3566 131.542C85.2331 130.531 83.8171 129.903 82.3134 129.75C78.8759 129.312 76.0634 131.062 76.6259 133.812C76.2262 132.229 75.3757 130.796 74.1776 129.687C72.9794 128.577 71.4851 127.839 69.8759 127.562C66.5009 126.875 64.1259 128.375 64.6259 131.125C64.1054 129.517 63.193 128.064 61.971 126.897C60.749 125.729 59.2558 124.884 57.6259 124.437C54.3134 123.437 52.1259 124.75 52.7509 127.562C52.1448 125.911 51.1968 124.406 49.969 123.146C48.7412 121.885 47.2612 120.899 45.6259 120.25C42.3759 119 40.3759 120.25 41.1884 123.062C39.8303 119.615 37.2491 116.789 33.9384 115.125C30.7509 113.562 28.9384 114.562 29.8759 117.5C33.6884 126.375 36.1259 136.25 38.8134 145.562C41.1921 153.783 43.9874 161.876 47.1884 169.812C48.3099 172.007 49.8532 173.96 51.73 175.558C53.6067 177.156 55.7802 178.368 58.1259 179.125C71.7307 184.548 86.2978 187.143 100.938 186.75C114.029 187.059 127.08 185.2 139.563 181.25C143.81 180.017 147.808 178.05 151.376 175.437C155.672 170.774 158.498 164.948 159.501 158.687C163.376 145.125 168.001 131.937 172.563 118.625C173.563 115.812 171.813 114.812 168.751 116.25Z" fill="url(#paint5_linear_512_53)"/>
<defs>
<radialGradient id="paint0_radial_512_53" cx="0" cy="0" r="1" gradientUnits="userSpaceOnUse" gradientTransform="translate(88.3431 127.172) rotate(90) scale(39.0625 61.1875)">
<stop offset="0.47" stop-color="#7A4C33"/>
<stop offset="1" stop-color="#52423C"/>
</radialGradient>
<linearGradient id="paint1_linear_512_53" x1="39.937" y1="95.6875" x2="157.062" y2="95.6875" gradientUnits="userSpaceOnUse">
<stop stop-color="#FF85AE"/>
<stop offset="0.32" stop-color="#FF7DA9"/>
<stop offset="0.82" stop-color="#FF669A"/>
<stop offset="1" stop-color="#FF5C93"/>
</linearGradient>
<linearGradient id="paint2_linear_512_53" x1="38.4383" y1="74.75" x2="153.126" y2="74.75" gradientUnits="userSpaceOnUse">
<stop stop-color="#FFB0CB"/>
<stop offset="0.79" stop-color="#F383A9"/>
<stop offset="1" stop-color="#F0769F"/>
</linearGradient>
<linearGradient id="paint3_linear_512_53" x1="88.25" y1="40.2499" x2="135" y2="40.2499" gradientUnits="userSpaceOnUse">
<stop stop-color="#F697B7"/>
<stop offset="0.34" stop-color="#F78FB2"/>
<stop offset="0.86" stop-color="#F878A3"/>
<stop offset="1" stop-color="#F9719F"/>
</linearGradient>
<linearGradient id="paint4_linear_512_53" x1="42.625" y1="64.25" x2="147" y2="64.25" gradientUnits="userSpaceOnUse">
<stop stop-color="#F78FB2"/>
<stop offset="0.27" stop-color="#F887AD"/>
<stop offset="0.7" stop-color="#FC709F"/>
<stop offset="1" stop-color="#FF5C93"/>
</linearGradient>
<linearGradient id="paint5_linear_512_53" x1="101.251" y1="126.5" x2="101.251" y2="180.125" gradientUnits="userSpaceOnUse">
<stop stop-color="#4FE8FF"/>
<stop offset="0.5" stop-color="#4BDDF3"/>
<stop offset="1" stop-color="#45CEE3"/>
</linearGradient>
</defs>
</svg>
