<svg width="30" height="30" viewBox="0 0 30 30" fill="none" xmlns="http://www.w3.org/2000/svg">
<path d="M2.5 27.5H27.5" stroke="#001F3F" stroke-width="2" stroke-linecap="round" stroke-linejoin="round"/>
<path d="M3.68744 27.5L3.74994 12.4625C3.74994 11.7 4.11244 10.9751 4.71244 10.5001L13.4624 3.68754C14.3624 2.98754 15.6249 2.98754 16.5374 3.68754L25.2874 10.4875C25.8999 10.9625 26.2499 11.6875 26.2499 12.4625V27.5" stroke="#001F3F" stroke-width="2" stroke-linejoin="round"/>
<path d="M13.75 21.25C12.7125 21.25 11.875 22.0875 11.875 23.125V27.5H18.125V23.125C18.125 22.0875 17.2875 21.25 16.25 21.25H13.75Z" stroke="#001F3F" stroke-width="2" stroke-linejoin="round"/>
<path d="M9.375 17.1875C8.6875 17.1875 8.125 16.625 8.125 15.9375V14.0625C8.125 13.375 8.6875 12.8125 9.375 12.8125H11.875C12.5625 12.8125 13.125 13.375 13.125 14.0625V15.9375C13.125 16.625 12.5625 17.1875 11.875 17.1875H9.375Z" stroke="#001F3F" stroke-width="2" stroke-linejoin="round"/>
<path d="M18.125 17.1875C17.4375 17.1875 16.875 16.625 16.875 15.9375V14.0625C16.875 13.375 17.4375 12.8125 18.125 12.8125H20.625C21.3125 12.8125 21.875 13.375 21.875 14.0625V15.9375C21.875 16.625 21.3125 17.1875 20.625 17.1875H18.125Z" stroke="#001F3F" stroke-width="2" stroke-linejoin="round"/>
<path d="M23.7501 8.75L23.7126 5H18.2126" stroke="#001F3F" stroke-width="2" stroke-linecap="round" stroke-linejoin="round"/>
</svg>
