<svg width="24" height="24" viewBox="0 0 24 24" fill="none" xmlns="http://www.w3.org/2000/svg">
<path d="M4.22196 19.5355C4.68584 20.0001 5.23693 20.3684 5.84358 20.6193C6.45023 20.8702 7.10048 20.9987 7.75696 20.9975C8.41359 20.9987 9.06398 20.8701 9.67079 20.6192C10.2776 20.3683 10.8289 20.0001 11.293 19.5355L14.121 16.7065L12.707 15.2925L9.87896 18.1215C9.31543 18.6825 8.55263 18.9975 7.75746 18.9975C6.96229 18.9975 6.19949 18.6825 5.63596 18.1215C5.07447 17.5583 4.75917 16.7954 4.75917 16C4.75917 15.2047 5.07447 14.4418 5.63596 13.8785L8.46496 11.0505L7.05096 9.63653L4.22196 12.4645C3.28577 13.403 2.76001 14.6745 2.76001 16C2.76001 17.3256 3.28577 18.5971 4.22196 19.5355ZM19.778 11.0505C20.7137 10.1118 21.2391 8.84045 21.2391 7.51503C21.2391 6.18961 20.7137 4.91825 19.778 3.97953C18.8395 3.04334 17.568 2.51758 16.2425 2.51758C14.9169 2.51758 13.6454 3.04334 12.707 3.97953L9.87896 6.80853L11.293 8.22253L14.121 5.39353C14.6845 4.83252 15.4473 4.51756 16.2425 4.51756C17.0376 4.51756 17.8004 4.83252 18.364 5.39353C18.9255 5.9568 19.2408 6.7197 19.2408 7.51503C19.2408 8.31036 18.9255 9.07326 18.364 9.63653L15.535 12.4645L16.949 13.8785L19.778 11.0505Z" fill="#09332B"/>
<path d="M8.46395 16.7076L7.04895 15.2936L15.536 6.80762L16.95 8.22262L8.46395 16.7076Z" fill="#09332B"/>
</svg>
