<svg width="800" height="800" viewBox="0 0 800 800" fill="none" xmlns="http://www.w3.org/2000/svg">
<path opacity="0.5" fill-rule="evenodd" clip-rule="evenodd" d="M523.29 125.12C554.324 109.963 588.854 101.472 617.627 115.384C632.964 122.8 643.574 135.221 649.994 150.008C655.827 163.441 658.204 178.721 658.34 194.525C658.457 207.812 656.994 222.164 654.19 237.261C649.954 260.082 642.61 284.89 632.734 310.757C631.7 313.465 630.247 315.889 628.477 317.984C634.65 320.069 640.677 322.213 646.547 324.413L646.6 324.433C648.157 325.017 649.864 325.667 651.394 326.257C655.84 327.973 660.19 329.722 664.444 331.501C675.307 336.05 685.524 340.8 695.01 345.73C704.764 350.797 713.867 356.11 722.2 361.663C750.94 380.813 775.69 406.347 778.19 438.207C779.524 455.19 774.15 470.617 764.62 483.62C755.964 495.43 743.97 505.193 730.394 513.283C718.977 520.083 705.847 526.06 691.4 531.257C669.557 539.11 644.43 545.283 617.114 549.803C603.494 552.057 590.624 542.843 588.37 529.22C586.114 515.597 595.33 502.727 608.95 500.473C627.68 497.373 644.477 493.557 659.18 489.2L659.35 489.147C678.217 483.547 693.407 477.12 704.797 470.33C714.607 464.487 720.774 458.867 724.294 454.063C727.8 449.273 728.61 445.497 728.344 442.12C727.727 434.253 720.11 420.353 694.474 403.273C687.854 398.86 680.34 394.453 671.96 390.1L628.75 371.137C570.32 349.267 492.054 332.535 405.9 326.524C395.207 325.778 384.667 325.216 374.297 324.831C360.417 342.373 346.71 360.983 333.4 380.507C308.611 416.87 287.783 452.607 271.218 486.147C281.708 492.12 286.6 504.997 282.215 516.657C277.456 529.31 263.536 535.84 250.826 531.547C243.286 550.303 237.343 567.997 233.063 584.283C232.612 585.997 232.182 587.69 231.771 589.36L231.697 589.67C225.179 616.3 223.745 637.167 226.033 651.727C226.922 657.38 228.253 661.563 229.788 664.68C232.132 669.43 234.952 671.707 237.37 672.903L237.5 672.967C238.942 673.663 240.721 674.253 242.955 674.617C247.041 675.287 252.644 675.207 260.019 673.617C273.344 670.747 290.244 663.44 310.05 651.027C314.625 648.16 319.314 645.047 324.105 641.693C332.093 636.097 340.337 629.85 348.787 622.97L387.967 591.133C398.68 582.427 414.427 584.057 423.134 594.77C431.84 605.487 430.214 621.233 419.497 629.94L380.354 661.747C371.064 669.31 361.854 676.297 352.787 682.647C347.347 686.457 341.947 690.047 336.6 693.397C314.015 707.55 291.587 717.963 270.549 722.497C258.67 725.053 246.578 725.88 234.862 723.96C228.296 722.883 221.861 720.943 215.735 717.98L215.19 717.713C190.874 705.677 179.674 681.943 176.277 657.023C172.91 632.327 176.468 602.917 184.705 571.573C189.389 553.753 195.735 534.75 203.637 514.89L186.745 508.927C175.528 504.72 164.849 500.293 154.793 495.67C148.758 492.893 142.935 490.04 137.345 487.113C113.734 474.75 93.4281 460.637 78.9031 444.76C70.7014 435.793 63.8888 425.77 59.6381 414.683C57.2554 408.47 55.6851 401.933 55.1528 395.15L55.1078 394.547C53.2348 367.48 68.0788 345.837 87.8838 330.332C107.51 314.968 134.698 303.206 165.916 294.508C215.501 280.694 279.579 273.437 350.974 274.252C384.754 233.758 419.6 198.822 452.964 171.653L453.01 171.617C454.3 170.568 455.724 169.42 457.004 168.398C460.727 165.424 464.43 162.55 468.114 159.777C477.52 152.689 486.777 146.266 495.817 140.56C505.114 134.694 514.294 129.514 523.29 125.12ZM414.877 277.043C475.74 281.613 533.68 291.343 584.554 304.823C584.08 300.921 584.524 296.851 586.024 292.924C592.794 275.19 597.97 258.761 601.624 243.865L601.667 243.693C606.344 224.578 608.457 208.22 608.344 194.959C608.244 183.54 606.5 175.383 604.13 169.92C601.767 164.475 598.91 161.872 595.86 160.398C588.757 156.962 572.914 156.528 545.234 170.048C538.084 173.539 530.487 177.804 522.504 182.844L484.33 210.589C462.01 228.785 438.504 251.182 414.877 277.043ZM311.628 324.661C260.017 326.39 214.773 332.801 179.335 342.673C177.627 343.15 175.948 343.633 174.299 344.12L173.995 344.213C147.712 352.017 128.973 361.303 117.554 370.623C113.122 374.243 110.18 377.503 108.263 380.4C105.345 384.82 104.802 388.403 104.988 391.093L104.999 391.24C105.125 392.837 105.513 394.67 106.324 396.783C107.806 400.647 110.704 405.443 115.796 411.01C124.996 421.07 139.83 431.977 160.538 442.817C165.32 445.32 170.374 447.8 175.688 450.243C184.547 454.32 194.103 458.287 204.302 462.11L223.925 469.037C242.12 431.52 265.044 392.013 292.088 352.343C298.502 342.933 305.022 333.7 311.628 324.661Z" fill="#529CF3"/>
<path d="M392.157 476.043C391.697 445.697 391.47 430.523 401.037 425C410.604 419.477 423.63 427.26 449.684 442.83L456.424 446.86C463.827 451.283 467.527 453.493 471.604 454.01C475.684 454.527 479.674 453.287 487.66 450.807L494.93 448.55C523.027 439.823 537.077 435.46 545.52 443.26C553.967 451.06 551.214 465.857 545.71 495.45L544.287 503.107C542.724 511.517 541.94 515.72 542.867 519.83C543.797 523.937 546.327 527.483 551.394 534.573L556.003 541.03C573.827 565.983 582.737 578.46 578.39 588.803C574.044 599.15 559.314 600.51 529.86 603.23L522.24 603.933C513.87 604.707 509.687 605.093 506.18 607.117C502.677 609.14 500.25 612.57 495.397 619.433L490.977 625.68C473.894 649.827 465.35 661.903 454.22 660.493C443.087 659.087 436.737 645.133 424.037 617.22L420.754 610C417.144 602.067 415.34 598.1 412.247 595.243C409.15 592.387 405.12 590.96 397.054 588.11L389.714 585.517C361.33 575.487 347.14 570.47 344.61 559.257C342.077 548.043 352.88 538.06 374.484 518.087L380.074 512.92C386.214 507.247 389.284 504.407 390.877 500.62C392.467 496.83 392.404 492.517 392.274 483.893L392.157 476.043Z" fill="#4173B9"/>
</svg>
